<svg class="main-svg" xmlns="http://www.w3.org/2000/svg" xmlns:xlink="http://www.w3.org/1999/xlink" width="700" height="500" style="" viewBox="0 0 700 500"><rect x="0" y="0" width="700" height="500" style="fill: rgb(17, 17, 17); fill-opacity: 1;"/><defs id="defs-8caeec"><g class="clips"><clipPath id="clip8caeecxyplot" class="plotclip"><rect width="540" height="320"/></clipPath><clipPath class="axesclip" id="clip8caeecx"><rect x="80" y="0" width="540" height="500"/></clipPath><clipPath class="axesclip" id="clip8caeecy"><rect x="0" y="100" width="700" height="320"/></clipPath><clipPath class="axesclip" id="clip8caeecxy"><rect x="80" y="100" width="540" height="320"/></clipPath></g><g class="gradients"/><g class="patterns"/></defs><g class="bglayer"/><g class="layer-below"><g class="imagelayer"/><g class="shapelayer"/></g><g class="cartesianlayer"><g class="subplot xy"><g class="layer-subplot"><g class="shapelayer"/><g class="imagelayer"/></g><g class="minor-gridlayer"><g class="x"/><g class="y"/></g><g class="gridlayer"><g class="x"><path class="xgrid crisp" transform="translate(188,0)" d="M0,100v320" style="stroke: rgb(40, 52, 66); stroke-opacity: 1; stroke-width: 1px;"/><path class="xgrid crisp" transform="translate(296,0)" d="M0,100v320" style="stroke: rgb(40, 52, 66); stroke-opacity: 1; stroke-width: 1px;"/><path class="xgrid crisp" transform="translate(404,0)" d="M0,100v320" style="stroke: rgb(40, 52, 66); stroke-opacity: 1; stroke-width: 1px;"/><path class="xgrid crisp" transform="translate(512,0)" d="M0,100v320" style="stroke: rgb(40, 52, 66); stroke-opacity: 1; stroke-width: 1px;"/></g><g class="y"><path class="ygrid crisp" transform="translate(0,388.5)" d="M80,0h540" style="stroke: rgb(40, 52, 66); stroke-opacity: 1; stroke-width: 1px;"/><path class="ygrid crisp" transform="translate(0,347.77)" d="M80,0h540" style="stroke: rgb(40, 52, 66); stroke-opacity: 1; stroke-width: 1px;"/><path class="ygrid crisp" transform="translate(0,307.03)" d="M80,0h540" style="stroke: rgb(40, 52, 66); stroke-opacity: 1; stroke-width: 1px;"/><path class="ygrid crisp" transform="translate(0,266.28999999999996)" d="M80,0h540" style="stroke: rgb(40, 52, 66); stroke-opacity: 1; stroke-width: 1px;"/><path class="ygrid crisp" transform="translate(0,225.56)" d="M80,0h540" style="stroke: rgb(40, 52, 66); stroke-opacity: 1; stroke-width: 1px;"/><path class="ygrid crisp" transform="translate(0,184.82)" d="M80,0h540" style="stroke: rgb(40, 52, 66); stroke-opacity: 1; stroke-width: 1px;"/><path class="ygrid crisp" transform="translate(0,144.07999999999998)" d="M80,0h540" style="stroke: rgb(40, 52, 66); stroke-opacity: 1; stroke-width: 1px;"/><path class="ygrid crisp" transform="translate(0,103.34)" d="M80,0h540" style="stroke: rgb(40, 52, 66); stroke-opacity: 1; stroke-width: 1px;"/></g></g><g class="zerolinelayer"><path class="xzl zl crisp" transform="translate(80,0)" d="M0,100v320" style="stroke: rgb(40, 52, 66); stroke-opacity: 1; stroke-width: 2px;"/></g><path class="xlines-below"/><path class="ylines-below"/><g class="overlines-below"/><g class="xaxislayer-below"/><g class="yaxislayer-below"/><g class="overaxes-below"/><g class="plot" transform="translate(80,100)" clip-path="url(#clip8caeecxyplot)"><g class="scatterlayer mlayer"><g class="trace scatter trace3b1662" style="stroke-miterlimit: 2; opacity: 1;"><g class="fills"/><g class="errorbars"/><g class="lines"><path class="js-line" d="M0,207.03L0.43,205.76L0.49,205.41L1.46,192.17L1.51,191.08L3.02,148.21L3.08,146.34L7.07,24.09L7.13,23.34L8.21,16L8.37,16.18L8.42,16.32L8.96,19.74L9.02,20.28L10.31,43.7L10.37,45.07L13.5,153.97L13.55,155.9L15.82,206.23L15.88,206.34L16.25,205.64L16.31,205.34L17.23,193.7L17.28,192.67L19.55,129.63L19.6,127.87L23.65,26.87L23.71,26.38L24.46,22.93L24.73,23.36L24.79,23.56L25.54,30.24L25.6,31.01L27,65.08L27.05,66.9L32.02,217.3L32.08,217.66L32.51,219.06L32.89,218.13L32.94,217.83L33.8,207.65L33.86,206.68L35.64,156.77L35.69,154.82L39.8,32.64L39.85,32.47L40.07,32.27L40.34,32.97L40.39,33.24L41.15,40.73L41.2,41.52L42.61,70.55L42.66,71.93L47.9,198.8L47.95,199.35L48.92,204.31L49.19,203.88L49.25,203.7L50,197.44L50.06,196.72L51.46,164.36L51.52,162.58L56.05,22.45L56.11,21.83L56.92,17.38L57.19,17.9L57.24,18.13L58.05,26.27L58.1,27.12L59.35,56.34L59.4,57.99L64.31,209.55L64.37,209.71L64.58,209.87L64.8,209.28L64.85,209.02L65.56,202.03L65.61,201.24L67.45,159.07L67.5,157.52L71.87,42.95L71.93,42.2L73.22,33.06L73.28,33.08L73.33,33.13L73.87,35.65L73.93,36.11L75.01,53.33L75.06,54.62L77.27,132.29L77.33,134.42L79.97,215.62L80.03,216.54L81.27,226.81L81.32,226.77L81.38,226.69L81.92,223.64L81.97,223.11L82.94,207.05L83,205.81L85.32,128.19L85.37,126.06L88.45,40.01L88.51,39.77L88.78,39.27L89.1,40.13L89.15,40.42L89.91,48.32L89.96,49.13L91.42,80.44L91.48,81.87L96.61,208.23L96.66,208.8L97.63,213.83L97.85,213.55L97.9,213.39L98.5,209.34L98.55,208.76L99.79,184.53L99.85,182.99L105.03,27.95L105.08,27.54L105.62,25.73L105.95,26.59L106,26.87L106.76,35.04L106.81,35.92L108.05,65.65L108.11,67.32L112.97,217.36L113.02,217.53L113.24,217.77L113.51,217.05L113.56,216.78L114.32,208.96L114.37,208.14L115.78,177.82L115.83,176.38L120.96,47.98L121.01,47.41L121.93,42.6L122.2,43L122.26,43.19L123.01,49.69L123.07,50.44L124.47,84.43L124.52,86.26L129.44,234.19L129.49,234.55L129.98,235.96L130.3,235.05L130.36,234.75L131.22,224.61L131.27,223.65L132.62,188.66L132.68,186.89L137.11,49.74L137.16,49.47L137.48,48.82L137.81,49.72L137.86,50.02L138.62,57.91L138.67,58.72L140.08,88.4L140.13,89.8L145.37,217.52L145.42,218.05L146.34,222.61L146.61,222.18L146.66,221.99L147.31,216.95L147.37,216.29L148.66,188.54L148.72,186.86L153.58,38.19L153.63,37.67L154.28,34.61L154.6,35.27L154.66,35.53L155.47,44.1L155.52,44.98L157.19,89L157.25,90.87L161.51,225.31L161.57,225.62L161.95,226.47L162.27,225.44L162.32,225.12L163.13,215.94L163.19,215.06L165.35,162.31L165.4,160.72L169.88,55L169.94,54.56L170.64,51.66L170.96,52.24L171.02,52.47L171.83,60.3L171.88,61.14L173.02,88.32L173.07,90.07L177.88,240.91L177.93,241.47L178.63,244.98L178.9,244.49L178.96,244.27L179.77,236.11L179.82,235.25L181.44,193.69L181.49,191.86L185.98,58.34L186.03,58.22L186.19,58.12L186.46,58.81L186.52,59.07L187.38,68.08L187.43,68.92L188.95,101.83L189,103.26L193.97,225.05L194.02,225.64L195.05,231.31L195.32,230.89L195.37,230.7L196.02,225.67L196.07,225.01L197.1,204.94L197.15,203.48L198.94,140.08L198.99,137.99L201.74,54.15L201.8,53.26L202.99,43.42L203.09,43.49L203.15,43.59L203.74,47.32L203.8,47.9L205.09,73.04L205.15,74.52L208.55,198.62L208.6,200.43L210.49,235.08L210.55,235.14L210.92,234.36L210.98,234.08L211.9,223.69L211.95,222.78L214.16,167.91L214.22,166.31L217.89,72.31L217.94,71.5L219.35,60.55L219.46,60.6L219.51,60.68L220.1,63.94L220.16,64.47L221.29,84.74L221.35,86.17L224.37,196.85L224.42,198.73L226.85,252.22L226.91,252.57L227.34,253.85L227.66,253.09L227.72,252.82L228.58,243.04L228.64,242.1L230.42,192.8L230.47,190.86L234.58,67.8L234.63,67.59L234.85,67.24L235.17,67.97L235.22,68.24L235.98,75.69L236.03,76.47L237.38,103.94L237.44,105.3L242.84,235.32L242.89,235.83L243.76,239.89L244.03,239.48L244.08,239.29L244.84,232.89L244.89,232.16L246.29,198.74L246.35,196.93L250.83,57.27L250.88,56.65L251.69,52.1L252.02,52.84L252.07,53.11L252.77,60.2L252.83,61.02L254.45,101.65L254.5,103.46L259.15,243.55L259.2,243.66L259.58,243.14L259.63,242.9L260.33,236.27L260.39,235.52L262.17,196.64L262.22,195.15L267.46,71.4L267.52,71.05L268.06,69.29L268.38,69.87L268.43,70.1L269.14,76.43L269.19,77.19L270.54,109.86L270.59,111.68L275.56,261.01L275.62,261.35L276.05,262.58L276.37,261.77L276.43,261.49L277.29,251.59L277.34,250.64L278.64,217.66L278.69,215.92L281.61,107.79L281.66,106.07L283.45,76.29L283.5,76.24L283.93,77.26L283.99,77.57L284.96,88.9L285.01,89.81L286.58,125.51L286.63,126.97L291.82,246.03L291.87,246.39L292.46,248.35L292.79,247.75L292.84,247.53L293.54,241.35L293.6,240.61L294.95,208.9L295,207.11L299.92,62.25L299.97,61.91L300.4,60.66L300.73,61.43L300.78,61.71L301.64,71.47L301.7,72.41L303.48,121.71L303.53,123.65L307.75,251.68L307.8,251.87L308.02,252.17L308.34,251.32L308.39,251.03L309.15,243.14L309.2,242.32L310.61,212.34L310.66,210.92L316.28,79.32L316.33,79.03L316.82,77.89L317.14,78.7L317.2,78.96L318.06,88.36L318.11,89.29L319.3,120.49L319.36,122.34L323.84,265.56L323.89,266.21L324.76,271.16L325.03,270.56L325.08,270.31L325.89,261.79L325.94,260.91L327.19,231L327.24,229.33L331.94,85.76L331.99,85.53L332.26,85.06L332.59,85.87L332.64,86.14L333.56,96.04L333.61,96.9L335.12,129.94L335.18,131.36L340.04,249.78L340.09,250.4L341.17,256.67L341.39,256.4L341.44,256.25L342.04,252.24L342.09,251.65L343.33,227.17L343.39,225.6L348.52,71.41L348.57,71L349.11,69.08L349.43,69.89L349.49,70.17L350.35,80.03L350.41,80.98L352.19,130.44L352.24,132.38L356.45,260.03L356.51,260.22L356.72,260.5L356.99,259.86L357.05,259.61L357.91,250.6L357.97,249.75L360.02,201.31L360.07,199.76L364.77,89.24L364.82,88.83L365.47,86.33L365.8,86.92L365.85,87.15L366.66,95.12L366.71,95.97L367.85,123.75L367.9,125.52L372.98,278.17L373.03,278.49L373.46,279.6L373.79,278.7L373.84,278.41L374.6,270.07L374.65,269.18L375.89,239.12L375.95,237.44L380.59,94.67L380.65,94.41L380.97,93.76L381.29,94.6L381.35,94.88L382.27,104.79L382.32,105.65L384.48,156.2L384.53,157.72L389.12,261.71L389.18,262.13L389.88,264.84L390.2,264.24L390.26,264.02L391.07,256.31L391.12,255.49L392.26,228.74L392.31,227L397.01,81.67L397.06,81.11L397.82,77.37L398.09,77.97L398.14,78.21L398.84,85.02L398.9,85.82L400.46,124.18L400.52,125.95L405.05,267.75L405.11,268.03L405.43,268.69L405.76,267.78L405.81,267.49L406.78,256.13L406.84,255.2L409.16,196.92L409.21,195.32L413.42,97.98L413.48,97.53L414.18,94.62L414.5,95.22L414.56,95.45L415.37,103.47L415.42,104.32L416.56,132.25L416.61,134.03L421.36,283.76L421.42,284.32L422.12,287.9L422.44,287.2L422.5,286.94L423.36,277.3L423.41,276.37L424.71,243.7L424.76,241.97L427.57,137.56L427.63,135.77L429.3,103.16L429.35,102.9L429.68,102.3L430,103.18L430.06,103.46L431.03,114.24L431.08,115.12L432.65,149.86L432.7,151.29L437.99,270.92L438.05,271.25L438.59,272.87L438.91,272.26L438.97,272.04L439.78,264.32L439.83,263.5L441.29,225.82L441.34,223.92L445.93,87.73L445.99,87.32L446.47,85.51L446.85,86.39L446.9,86.68L447.66,94.92L447.71,95.8L448.96,125.71L449.01,127.38L453.82,276.12L453.87,276.34L454.14,276.75L454.46,275.82L454.52,275.52L455.49,264.14L455.54,263.21L457.11,226.74L457.16,225.25L462.29,104.85L462.35,104.5L462.89,102.75L463.21,103.36L463.27,103.58L464.08,111.65L464.13,112.51L465.59,151.73L465.64,153.67L470.23,293.53L470.29,293.96L470.83,296.03L471.15,295.29L471.2,295.02L471.91,287.86L471.96,287.04L473.58,246.22L473.63,244.41L478.12,111.05L478.17,110.9L478.39,110.7L478.66,111.36L478.71,111.6L479.63,121L479.68,121.83L481.14,152.57L481.19,153.95L486.76,279.12L486.81,279.43L487.3,280.74L487.62,280.13L487.67,279.91L488.38,273.7L488.43,272.96L489.78,240.97L489.83,239.16L494.69,95.27L494.75,94.91L495.18,93.5L495.56,94.42L495.61,94.71L496.37,103.02L496.42,103.91L497.66,133.92L497.72,135.6L502.52,284.07L502.58,284.28L502.85,284.67L503.17,283.72L503.23,283.42L504.2,272.01L504.25,271.09L505.87,233.16L505.93,231.65L510.35,119.4L510.41,118.7L511.6,110.71L511.7,110.77L511.76,110.86L512.35,114.24L512.41,114.78L513.54,135.74L513.59,137.22L515.38,201.6L515.43,203.75L518.24,292.42L518.29,293.36L519.53,304L519.7,303.79L519.75,303.64L520.4,298.64L520.45,297.96L521.53,276.55L521.59,275.12L524.72,162.39L524.77,160.48L526.77,119.44L526.82,119.25L527.04,118.91L527.36,119.62L527.42,119.87L528.34,129.29L528.39,130.11L530.5,177.94L530.55,179.43L534.6,278.17L534.65,278.91L536,288.45L536.17,288.29L536.22,288.18L536.87,283.98L536.92,283.39L537.89,265.98L537.95,264.62L540,193.92" style="vector-effect: non-scaling-stroke; fill: none; stroke: rgb(99, 110, 250); stroke-opacity: 1; stroke-width: 2px; opacity: 1;"/></g><g class="points"/><g class="text"/></g></g></g><g class="overplot"/><path class="xlines-above crisp" d="M0,0" style="fill: none;"/><path class="ylines-above crisp" d="M0,0" style="fill: none;"/><g class="overlines-above"/><g class="xaxislayer-above"><g class="xtick"><text text-anchor="middle" x="0" y="433" transform="translate(80,0)" style="font-family: 'Open Sans', verdana, arial, sans-serif; font-size: 12px; fill: rgb(242, 245, 250); fill-opacity: 1; white-space: pre; opacity: 1;">0</text></g><g class="xtick"><text text-anchor="middle" x="0" y="433" style="font-family: 'Open Sans', verdana, arial, sans-serif; font-size: 12px; fill: rgb(242, 245, 250); fill-opacity: 1; white-space: pre; opacity: 1;" transform="translate(188,0)">200</text></g><g class="xtick"><text text-anchor="middle" x="0" y="433" style="font-family: 'Open Sans', verdana, arial, sans-serif; font-size: 12px; fill: rgb(242, 245, 250); fill-opacity: 1; white-space: pre; opacity: 1;" transform="translate(296,0)">400</text></g><g class="xtick"><text text-anchor="middle" x="0" y="433" style="font-family: 'Open Sans', verdana, arial, sans-serif; font-size: 12px; fill: rgb(242, 245, 250); fill-opacity: 1; white-space: pre; opacity: 1;" transform="translate(404,0)">600</text></g><g class="xtick"><text text-anchor="middle" x="0" y="433" style="font-family: 'Open Sans', verdana, arial, sans-serif; font-size: 12px; fill: rgb(242, 245, 250); fill-opacity: 1; white-space: pre; opacity: 1;" transform="translate(512,0)">800</text></g><g class="xtick"><text text-anchor="middle" x="0" y="433" style="font-family: 'Open Sans', verdana, arial, sans-serif; font-size: 12px; fill: rgb(242, 245, 250); fill-opacity: 1; white-space: pre; opacity: 1;" transform="translate(620,0)">1000</text></g></g><g class="yaxislayer-above"><g class="ytick"><text text-anchor="end" x="79" y="4.199999999999999" transform="translate(0,388.5)" style="font-family: 'Open Sans', verdana, arial, sans-serif; font-size: 12px; fill: rgb(242, 245, 250); fill-opacity: 1; white-space: pre; opacity: 1;">96</text></g><g class="ytick"><text text-anchor="end" x="79" y="4.199999999999999" style="font-family: 'Open Sans', verdana, arial, sans-serif; font-size: 12px; fill: rgb(242, 245, 250); fill-opacity: 1; white-space: pre; opacity: 1;" transform="translate(0,347.77)">98</text></g><g class="ytick"><text text-anchor="end" x="79" y="4.199999999999999" style="font-family: 'Open Sans', verdana, arial, sans-serif; font-size: 12px; fill: rgb(242, 245, 250); fill-opacity: 1; white-space: pre; opacity: 1;" transform="translate(0,307.03)">100</text></g><g class="ytick"><text text-anchor="end" x="79" y="4.199999999999999" style="font-family: 'Open Sans', verdana, arial, sans-serif; font-size: 12px; fill: rgb(242, 245, 250); fill-opacity: 1; white-space: pre; opacity: 1;" transform="translate(0,266.28999999999996)">102</text></g><g class="ytick"><text text-anchor="end" x="79" y="4.199999999999999" style="font-family: 'Open Sans', verdana, arial, sans-serif; font-size: 12px; fill: rgb(242, 245, 250); fill-opacity: 1; white-space: pre; opacity: 1;" transform="translate(0,225.56)">104</text></g><g class="ytick"><text text-anchor="end" x="79" y="4.199999999999999" style="font-family: 'Open Sans', verdana, arial, sans-serif; font-size: 12px; fill: rgb(242, 245, 250); fill-opacity: 1; white-space: pre; opacity: 1;" transform="translate(0,184.82)">106</text></g><g class="ytick"><text text-anchor="end" x="79" y="4.199999999999999" style="font-family: 'Open Sans', verdana, arial, sans-serif; font-size: 12px; fill: rgb(242, 245, 250); fill-opacity: 1; white-space: pre; opacity: 1;" transform="translate(0,144.07999999999998)">108</text></g><g class="ytick"><text text-anchor="end" x="79" y="4.199999999999999" style="font-family: 'Open Sans', verdana, arial, sans-serif; font-size: 12px; fill: rgb(242, 245, 250); fill-opacity: 1; white-space: pre; opacity: 1;" transform="translate(0,103.34)">110</text></g></g><g class="overaxes-above"/></g></g><g class="polarlayer"/><g class="smithlayer"/><g class="ternarylayer"/><g class="geolayer"/><g class="funnelarealayer"/><g class="pielayer"/><g class="iciclelayer"/><g class="treemaplayer"/><g class="sunburstlayer"/><g class="glimages"/><defs id="topdefs-8caeec"><g class="clips"/></defs><g class="layer-above"><g class="imagelayer"/><g class="shapelayer"/></g><g class="infolayer"><g class="g-gtitle"/><g class="g-xtitle"/><g class="g-ytitle"/><g class="annotation" data-index="0" style="opacity: 1;"><g class="annotation-text-g" transform="rotate(0,350,461.5)"><g class="cursor-pointer" transform="translate(314,450)"><rect class="bg" x="0.5" y="0.5" width="71" height="22" style="stroke-width: 1px; stroke: rgb(0, 0, 0); stroke-opacity: 0; fill: rgb(0, 0, 0); fill-opacity: 0;"/><text class="annotation-text" text-anchor="middle" x="35.921875" y="18" style="font-family: 'Open Sans', verdana, arial, sans-serif; font-size: 16px; fill: rgb(242, 245, 250); fill-opacity: 1; white-space: pre;">Time [s]</text></g></g></g><g class="annotation" data-index="1" style="opacity: 1;"><g class="annotation-text-g" transform="rotate(-90,28.5,260)"><g class="cursor-pointer" transform="translate(22,249)"><rect class="bg" x="0.5" y="0.5" width="12" height="22" style="stroke-width: 1px; stroke: rgb(0, 0, 0); stroke-opacity: 0; fill: rgb(0, 0, 0); fill-opacity: 0;"/><text class="annotation-text" text-anchor="middle" x="6.734375" y="18" style="font-family: 'Open Sans', verdana, arial, sans-serif; font-size: 16px; fill: rgb(242, 245, 250); fill-opacity: 1; white-space: pre;">x</text></g></g></g></g></svg>